<?xml version="1.0" standalone="no"?><!DOCTYPE svg PUBLIC "-//W3C//DTD SVG 1.1//EN" "http://www.w3.org/Graphics/SVG/1.1/DTD/svg11.dtd"><svg t="1685954493247" class="icon" viewBox="0 0 1024 1024" version="1.1" xmlns="http://www.w3.org/2000/svg" p-id="7198" xmlns:xlink="http://www.w3.org/1999/xlink" width="64" height="64"><path d="M917.333333 443.733333V426.666667c0-164.266667-134.4-298.666667-298.666666-298.666667-113.066667 0-215.466667 64-264.533334 162.133333-21.333333-8.533333-42.666667-12.8-66.133333-12.8C187.733333 277.333333 106.666667 358.4 106.666667 458.666667v17.066666c-64 38.4-106.666667 108.8-106.666667 185.6 0 117.333333 96 213.333333 213.333333 213.333334h106.666667c23.466667 0 42.666667-19.2 42.666667-42.666667s-19.2-42.666667-42.666667-42.666667h-106.666667c-70.4 0-128-57.6-128-128 0-53.333333 34.133333-102.4 85.333334-119.466666 21.333333-8.533333 34.133333-32 25.6-53.333334-2.133333-10.666667-4.266667-19.2-4.266667-29.866666C192 405.333333 234.666667 362.666667 288 362.666667c21.333333 0 42.666667 6.4 59.733333 21.333333 10.666667 8.533333 25.6 10.666667 38.4 8.533333 12.8-4.266667 23.466667-14.933333 27.733334-27.733333 27.733333-89.6 110.933333-149.333333 204.8-149.333333 117.333333 0 213.333333 96 213.333333 213.333333 0 10.666667 0 21.333333-2.133333 32-2.133333 19.2 6.4 38.4 23.466666 44.8 51.2 25.6 85.333333 76.8 85.333334 134.4 0 76.8-57.6 140.8-132.266667 149.333333H704c-23.466667 0-42.666667 19.2-42.666667 42.666667s19.2 42.666667 42.666667 42.666667h106.666667c4.266667 0 10.666667 0 14.933333-2.133334C938.666667 853.333333 1024 755.2 1024 640c0-78.933333-40.533333-153.6-106.666667-196.266667" fill="#1296db" p-id="7199"></path><path d="M512 832c23.466667 0 42.666667-19.2 42.666667-42.666667v-196.266666l34.133333 34.133333c8.533333 8.533333 19.2 12.8 29.866667 12.8 10.666667 0 21.333333-4.266667 29.866666-12.8 17.066667-17.066667 17.066667-42.666667 0-59.733333l-106.666666-106.666667c-2.133333-2.133333-4.266667-4.266667-6.4-4.266667 0 0-2.133333-2.133333-4.266667-2.133333s-2.133333-2.133333-4.266667-2.133333-2.133333 0-4.266666-2.133334c-2.133333 0-2.133333 0-4.266667-2.133333-6.4-2.133333-10.666667-2.133333-17.066667 0-2.133333 0-2.133333 0-4.266666 2.133333-2.133333 0-2.133333 0-4.266667 2.133334-2.133333 0-2.133333 2.133333-4.266667 2.133333s-2.133333 2.133333-4.266666 2.133333c-2.133333 2.133333-4.266667 4.266667-6.4 4.266667l-106.666667 106.666667c-17.066667 17.066667-17.066667 42.666667 0 59.733333 12.8 8.533333 23.466667 12.8 34.133333 12.8s21.333333-4.266667 29.866667-12.8l34.133333-34.133333V789.333333c0 23.466667 19.2 42.666667 42.666667 42.666667" fill="#1296db" p-id="7200"></path></svg>